<?xml version="1.0" encoding="UTF-8" standalone="no"?>
<!-- Created with Inkscape (http://www.inkscape.org/) -->

<svg
   id="svg5"
   version="1.1"
   viewBox="0 0 143.12759 70.04641"
   height="70.04641"
   width="143.12759"
   xmlns="http://www.w3.org/2000/svg"
   xmlns:svg="http://www.w3.org/2000/svg">
  <defs
     id="defs2" />
  <g
     id="layer1"
     transform="translate(-5.5789787,-4.3115945)">
    <g
       aria-label="World"
       id="text63"
       style="font-weight:bold;font-size:48px;font-family:Gadugi;-inkscape-font-specification:'Gadugi Bold';fill:#aa8800;stroke:#e3e3e3;stroke-width:0.3;stroke-linecap:square;stroke-linejoin:bevel;paint-order:fill markers stroke">
      <path
         d="m 22.223017,23.762113 q -0.128,-0.405333 -0.426667,-0.704 -0.298666,-0.32 -0.725333,-0.490666 L 19.10835,21.75678 v -1.514667 h 13.12 v 1.514667 l -3.669333,1.045333 5.312,17.28 0.512,2.026667 h 0.149333 l 5.12,-16.277333 2.24,-5.397334 h 3.52 l 6.08,19.605334 0.597334,2.197333 h 0.128 l 6.101333,-19.178667 -3.584,-1.301333 v -1.514667 h 9.834667 v 1.514667 l -2.026667,0.981333 q -0.341333,0.170667 -0.704,0.512 -0.362667,0.341334 -0.490667,0.746667 l -6.976,21.056 -2.197333,5.354667 h -3.925333 l -5.589334,-18.048 -0.789333,-2.858667 h -0.128 l -4.949333,15.552 -2.218667,5.354667 h -4.16 z"
         style="font-family:'Sitka Heading';-inkscape-font-specification:'Sitka Heading Bold'"
         id="path2876" />
      <path
         d="m 74.361662,50.68478 q -2.581333,0 -4.650667,-0.768 -2.048,-0.789333 -3.498666,-2.261333 -1.450667,-1.472 -2.24,-3.562667 -0.789334,-2.112 -0.789334,-4.736 0,-2.432 0.768,-4.522667 0.768,-2.090666 2.24,-3.626666 1.472,-1.536 3.584,-2.410667 2.133334,-0.874667 4.842667,-0.874667 2.901333,0 4.992,0.938667 2.112,0.917333 3.477333,2.474667 1.386667,1.557333 2.048,3.626666 0.661334,2.048 0.661334,4.309334 0,2.389333 -0.768,4.48 -0.768,2.090666 -2.24,3.626666 -1.472,1.536 -3.605334,2.432 -2.112,0.874667 -4.821333,0.874667 z m 0.277333,-2.517333 q 1.429334,0 2.304,-0.789334 0.896,-0.810666 1.408,-2.048 0.512,-1.237333 0.682667,-2.730666 0.192,-1.514667 0.192,-2.922667 0,-1.728 -0.256,-3.370667 -0.234667,-1.664 -0.810667,-2.965333 -0.554666,-1.301333 -1.493333,-2.090667 -0.938667,-0.810666 -2.325333,-0.810666 -1.408,0 -2.304,0.789333 -0.874667,0.789333 -1.386667,2.026667 -0.512,1.216 -0.704,2.709333 -0.170667,1.493333 -0.170667,2.901333 0,1.557334 0.192,3.2 0.213334,1.642667 0.746667,3.008 0.554667,1.365334 1.493333,2.24 0.96,0.853334 2.432,0.853334 z"
         style="font-family:'Sitka Heading';-inkscape-font-specification:'Sitka Heading Bold'"
         id="path2878" />
      <path
         d="m 88.292329,48.63678 2.325333,-0.810667 q 0.384,-0.149333 0.64,-0.426666 0.277334,-0.277334 0.277334,-0.725334 v -13.184 q 0,-0.341333 -0.064,-0.597333 -0.04267,-0.277333 -0.192,-0.469333 -0.128,-0.213334 -0.341334,-0.362667 -0.213333,-0.149333 -0.554666,-0.256 L 88.121662,30.951447 V 29.62878 l 9.258667,-1.514667 v 4.736 h 0.064 q 0.661333,-1.045333 1.344,-1.941333 0.682667,-0.917333 1.472001,-1.557333 0.78933,-0.661334 1.70667,-1.024 0.91733,-0.384 2.00533,-0.384 0.576,0 1.04533,0.064 0.49067,0.04267 0.91734,0.149333 0.42666,0.106667 0.81066,0.256 0.384,0.149333 0.78934,0.341333 v 6.634667 h -2.77334 L 103.951,33.810113 q -0.0853,-0.192 -0.32,-0.362666 -0.21334,-0.192 -0.512,-0.341334 -0.27734,-0.149333 -0.64,-0.234666 -0.34134,-0.08533 -0.66134,-0.08533 -0.576,0 -1.13066,0.08533 -0.53334,0.064 -1.045338,0.298666 -0.512,0.213334 -1.002666,0.597334 -0.490667,0.362666 -1.002667,1.002666 v 11.904 q 0,0.469334 0.256,0.746667 0.256,0.277333 0.661333,0.405333 l 2.879998,0.810667 v 1.472 H 88.292329 Z"
         style="font-family:'Sitka Heading';-inkscape-font-specification:'Sitka Heading Bold'"
         id="path2880" />
      <path
         d="m 108.94302,48.63678 2.51734,-0.853333 q 0.448,-0.170667 0.68266,-0.426667 0.23467,-0.277333 0.23467,-0.725333 V 22.52478 q 0,-0.512 -0.27733,-0.853333 -0.27734,-0.341334 -0.87467,-0.554667 l -2.496,-0.917333 V 18.87678 l 9.74933,-1.301333 v 29.056 q 0,0.469333 0.256,0.746666 0.27734,0.256 0.66134,0.405334 l 2.32533,0.853333 v 1.472 h -12.77867 z"
         style="font-family:'Sitka Heading';-inkscape-font-specification:'Sitka Heading Bold'"
         id="path2882" />
      <path
         d="m 132.30299,50.535447 q -1.96267,0 -3.54133,-0.789334 -1.55734,-0.789333 -2.64534,-2.176 -1.088,-1.408 -1.664,-3.306666 -0.576,-1.92 -0.576,-4.181334 0,-2.517333 0.68267,-4.714666 0.704,-2.218667 2.00533,-3.861334 1.30134,-1.642666 3.17867,-2.602666 1.87733,-0.96 4.288,-0.96 0.93867,0 1.728,0.192 0.78933,0.170666 1.42933,0.490666 0.66134,0.298667 1.17334,0.704 0.512,0.384 0.91733,0.810667 l -0.064,-1.152 v -6.464 q 0,-0.512 -0.256,-0.853333 -0.23467,-0.341334 -0.87467,-0.554667 l -2.624,-0.917333 V 18.87678 l 9.87734,-1.301333 v 27.904 q 0,0.512 0.256,0.853333 0.256,0.32 0.91733,0.533333 l 2.176,0.725334 v 1.322666 l -8.91733,1.621334 h -0.29867 v -3.669334 h -0.10667 q -0.93866,1.322667 -1.96266,2.069334 -1.00267,0.725333 -1.94134,1.088 -0.93866,0.341333 -1.77066,0.426666 -0.81067,0.08533 -1.38667,0.08533 z m 3.11467,-3.733334 q 0.42666,0 0.93866,-0.04267 0.53334,-0.064 1.04534,-0.256 0.53333,-0.192 1.00266,-0.512 0.49067,-0.341334 0.81067,-0.874667 V 31.911447 q -0.32,-0.234667 -0.81067,-0.405334 -0.46933,-0.192 -0.98133,-0.298666 -0.512,-0.128 -1.024,-0.192 -0.512,-0.064 -0.896,-0.064 -1.344,0 -2.32533,0.618666 -0.98134,0.597334 -1.64267,1.621334 -0.64,1.024 -0.96,2.410666 -0.29867,1.386667 -0.29867,2.944 0,1.856 0.27734,3.370667 0.29866,1.514667 0.91733,2.602667 0.61867,1.088 1.6,1.685333 0.98133,0.597333 2.34667,0.597333 z"
         style="font-family:'Sitka Heading';-inkscape-font-specification:'Sitka Heading Bold'"
         id="path2884" />
    </g>
    <g
       aria-label="The Wonderful"
       id="text287"
       style="font-weight:bold;font-size:16px;font-family:Gadugi;-inkscape-font-specification:'Gadugi Bold';fill:#aa8800;stroke:#e3e3e3;stroke-width:0.3;stroke-linecap:square;stroke-linejoin:bevel;paint-order:fill markers stroke">
      <path
         d="M 10.646903,15.569817 H 6.5011248 l 0.078222,-0.412445 1.0737777,-0.248889 Q 7.8024582,14.872928 7.9020137,14.773372 8.0086804,14.666705 8.044236,14.510261 L 9.8717915,6.2755944 H 7.5606804 q -0.1351111,0 -0.2204444,0.078222 -0.085333,0.071111 -0.1422223,0.1777778 l -0.768,1.5573333 H 5.8753471 L 6.4300137,5.614261 h 8.5404443 l -0.554666,2.4746667 h -0.554667 l -0.07111,-1.5573333 q -0.0071,-0.1208889 -0.064,-0.1848889 -0.05689,-0.071111 -0.177778,-0.071111 H 11.20868 L 9.3811248,14.510261 q -0.035556,0.156444 0.028444,0.263111 0.071111,0.106667 0.2062222,0.135111 l 1.116445,0.248889 z"
         style="font-weight:normal"
         id="path2887" />
      <path
         d="m 20.175794,15.676483 q -0.277333,0 -0.483556,-0.09244 -0.206222,-0.09245 -0.348444,-0.234667 -0.135111,-0.142222 -0.213333,-0.312889 -0.07111,-0.170666 -0.07111,-0.334222 0,-0.08533 0.0071,-0.199111 0.01422,-0.120889 0.03555,-0.256 0.02133,-0.142222 0.04978,-0.284445 0.02844,-0.149333 0.05689,-0.284444 l 0.618666,-2.645333 q 0.064,-0.270223 0.09956,-0.519111 0.04267,-0.248889 0.04267,-0.426667 0,-0.2417779 -0.07111,-0.4266667 -0.07111,-0.1848889 -0.220445,-0.3057778 -0.149333,-0.128 -0.384,-0.192 -0.234667,-0.064 -0.568889,-0.064 -0.213333,0 -0.448,0.035556 -0.227555,0.035556 -0.462222,0.1208889 -0.234667,0.078222 -0.462222,0.2133334 -0.220445,0.1351111 -0.412445,0.3342222 l -0.974222,4.387555 q -0.02844,0.177778 -0.04267,0.369778 -0.0071,0.192 -0.01422,0.376889 0,0.177778 0,0.341334 0,0.163556 0,0.291556 h -1.507555 l 2.083555,-9.3795565 q 0.04267,-0.1777777 -0.02844,-0.2844444 -0.064,-0.1066667 -0.248889,-0.1777778 L 15.525127,5.422261 V 5.1093721 l 2.538667,-0.384 -0.860445,3.8826667 -0.163555,0.7608889 q 0.376889,-0.3911111 0.711111,-0.6257778 0.334222,-0.2346666 0.632889,-0.3555555 0.305778,-0.128 0.583111,-0.1635556 0.284444,-0.042667 0.547556,-0.042667 0.327111,0 0.64,0.085333 0.32,0.085333 0.568888,0.2844444 0.248889,0.192 0.398223,0.512 0.156444,0.32 0.163555,0.7822222 0,0.1706666 -0.03555,0.3911106 -0.03556,0.213334 -0.09956,0.526222 l -0.554667,2.382223 q -0.04267,0.192 -0.08533,0.391111 -0.03555,0.192 -0.064,0.355555 -0.02133,0.163556 -0.04267,0.291556 -0.01422,0.120889 -0.01422,0.177778 0,0.07822 0.03556,0.177777 0.04267,0.09956 0.120889,0.184889 0.08533,0.08533 0.213333,0.142223 0.135111,0.05689 0.327111,0.05689 0.04978,0 0.135111,-0.01422 0.09245,-0.01422 0.192,-0.03556 0.106667,-0.02844 0.213334,-0.064 0.113777,-0.03556 0.213333,-0.08533 h 0.163555 v 0.440889 q -0.213333,0.128 -0.469333,0.220445 -0.248889,0.09244 -0.504889,0.156444 -0.248889,0.064 -0.476444,0.09956 -0.227556,0.03555 -0.376889,0.03555 z"
         style="font-weight:normal"
         id="path2889" />
      <path
         d="m 24.982918,11.480928 q 0.632889,0.0071 1.102222,-0.106667 0.469334,-0.113778 0.775111,-0.341333 0.305778,-0.227556 0.448,-0.568889 0.149334,-0.348445 0.149334,-0.8106669 0,-0.192 -0.07822,-0.3484444 -0.07111,-0.1564444 -0.220444,-0.2702222 -0.149333,-0.1137778 -0.362667,-0.1777778 -0.213333,-0.064 -0.497777,-0.064 -0.277334,0 -0.597334,0.1848889 -0.312889,0.1777778 -0.618666,0.5191111 -0.298667,0.3342222 -0.554667,0.8320003 -0.248889,0.497777 -0.391111,1.123555 0.128,0.0071 0.241778,0.01422 0.120888,0.0071 0.227555,0.01422 0.106667,0 0.199111,0 0.09956,0 0.177778,0 z m 0.291556,4.238222 q -0.213334,0 -0.490667,-0.05689 -0.277333,-0.04978 -0.568889,-0.170667 -0.284444,-0.128 -0.561778,-0.341333 -0.277333,-0.213333 -0.490666,-0.533333 -0.213334,-0.327111 -0.348445,-0.775111 -0.128,-0.448 -0.128,-1.045334 0,-0.554666 0.120889,-1.109333 0.128,-0.561778 0.369778,-1.073778 0.248889,-0.512 0.604444,-0.9599999 0.355556,-0.448 0.810667,-0.768 0.455111,-0.3271111 1.002667,-0.512 0.547555,-0.192 1.194666,-0.192 0.341334,0 0.696889,0.078222 0.355556,0.078222 0.64,0.256 0.291556,0.1777777 0.469333,0.4693333 0.184889,0.2915556 0.184889,0.704 0,0.4337776 -0.156444,0.7751116 -0.149333,0.341333 -0.412445,0.604444 -0.263111,0.263111 -0.618666,0.455111 -0.348445,0.184889 -0.753778,0.305778 -0.398222,0.120889 -0.832,0.177778 -0.433778,0.05689 -0.853333,0.05689 -0.128,0 -0.291556,-0.0071 -0.156444,-0.01422 -0.312889,-0.02844 -0.156444,-0.02133 -0.298666,-0.03556 -0.142223,-0.02133 -0.220445,-0.03556 -0.01422,0.07111 -0.02133,0.156445 -0.0071,0.07822 -0.01422,0.163555 0,0.07822 -0.0071,0.149333 0,0.07111 0,0.128 0,0.476445 0.09956,0.888889 0.09956,0.412445 0.327111,0.725334 0.234667,0.305777 0.604445,0.490666 0.369777,0.177778 0.903111,0.177778 0.348444,0 0.647111,-0.08533 0.305778,-0.08533 0.583111,-0.227556 0.284444,-0.149333 0.561778,-0.334222 0.277333,-0.192 0.568889,-0.391111 h 0.192 l -0.135112,0.746667 q -0.348444,0.248888 -0.675555,0.462222 -0.32,0.213333 -0.675556,0.369778 -0.348444,0.156444 -0.760889,0.248888 -0.412444,0.09245 -0.952888,0.09245 z"
         style="font-weight:normal"
         id="path2891" />
      <path
         d="M 34.860237,6.8089277 Q 34.838903,6.5315944 34.554459,6.4107055 L 33.871792,6.1120388 33.978459,5.614261 h 4.245333 l -0.106667,0.4977778 -1.201777,0.3768889 0.469333,5.6604443 0.04267,0.753778 h 0.04978 l 2.794667,-5.4257779 1.088,-1.7991111 h 1.116445 l 0.661333,6.492444 0.07111,0.775112 h 0.04267 L 46.600681,6.574261 45.498459,6.1120388 45.605125,5.614261 h 3.370667 L 48.869125,6.1120388 48.12957,6.4675944 q -0.128,0.056889 -0.277333,0.1706666 -0.142223,0.1137778 -0.213334,0.2488889 l -3.747555,6.9831111 -1.201778,1.792 H 41.416681 L 40.83357,9.9520388 40.734014,8.8284833 h -0.04267 l -2.581334,5.0417777 -1.216,1.792 h -1.301333 z"
         style="font-style:italic;font-family:'Sitka Heading';-inkscape-font-specification:'Sitka Heading Bold Italic'"
         id="path2893" />
      <path
         d="m 50.57579,14.936928 q 0.355556,0 0.64,-0.213334 0.291556,-0.220444 0.504889,-0.561777 0.220444,-0.341334 0.369778,-0.768 0.156444,-0.433778 0.248889,-0.867556 0.09956,-0.433778 0.142222,-0.824889 0.04267,-0.398222 0.04267,-0.661333 0,-0.199111 -0.01422,-0.426667 -0.0071,-0.234667 -0.04267,-0.455111 -0.03556,-0.2275555 -0.113778,-0.4337777 -0.07111,-0.2133334 -0.199111,-0.3697778 -0.128,-0.1564445 -0.32,-0.2488889 -0.184889,-0.099556 -0.455111,-0.099556 -0.369778,0 -0.661334,0.2204445 -0.291555,0.2204444 -0.512,0.5831111 -0.213333,0.3555558 -0.362666,0.8035558 -0.149334,0.448 -0.241778,0.896 -0.09244,0.448 -0.135111,0.853333 -0.04267,0.405334 -0.04267,0.675556 0,0.291556 0.03556,0.625778 0.04267,0.327111 0.163555,0.611555 0.120889,0.284445 0.348445,0.476445 0.227555,0.184889 0.604444,0.184889 z m -0.106667,0.824889 q -0.696889,0 -1.28,-0.199112 -0.583111,-0.199111 -1.002666,-0.583111 -0.419556,-0.384 -0.661334,-0.938666 -0.234666,-0.554667 -0.234666,-1.272889 0,-0.604445 0.135111,-1.173334 0.142222,-0.576 0.398222,-1.080888 0.263111,-0.512 0.632889,-0.9386671 0.376889,-0.4337778 0.846222,-0.7395555 0.469333,-0.3128889 1.024,-0.4835556 0.554667,-0.1777778 1.187556,-0.1777778 0.711111,0 1.294222,0.2062223 0.590222,0.1991111 1.002667,0.5902222 0.419555,0.384 0.647111,0.9457778 0.227555,0.5617777 0.227555,1.2871107 0,0.597334 -0.142222,1.166223 -0.142222,0.561777 -0.405333,1.073777 -0.263111,0.504889 -0.64,0.931556 -0.369778,0.419555 -0.839111,0.732444 -0.462223,0.305778 -1.016889,0.476445 -0.554667,0.177778 -1.173334,0.177778 z"
         style="font-style:italic;font-family:'Sitka Heading';-inkscape-font-specification:'Sitka Heading Bold Italic'"
         id="path2895" />
      <path
         d="m 61.797137,15.676483 q -0.312889,0 -0.576,-0.08533 -0.263111,-0.08533 -0.455111,-0.234667 -0.184889,-0.156444 -0.298667,-0.369778 -0.106667,-0.213333 -0.106667,-0.476444 0,-0.277333 0.03556,-0.526222 0.04267,-0.256 0.09956,-0.497778 l 0.519111,-2.204444 q 0.05689,-0.234667 0.09244,-0.476445 0.04267,-0.241778 0.04267,-0.519111 0,-0.177778 -0.04978,-0.3271111 -0.04267,-0.1564444 -0.149333,-0.2702222 -0.09956,-0.1208889 -0.277334,-0.1848889 -0.177777,-0.071111 -0.433777,-0.071111 -0.156445,0 -0.334223,0.028444 -0.177777,0.028444 -0.355555,0.092444 -0.177778,0.064 -0.355556,0.1848889 -0.170666,0.1137778 -0.327111,0.2915553 l -0.924444,4.16 q -0.02133,0.170667 -0.03556,0.362667 -0.01422,0.184889 -0.02133,0.369777 0,0.184889 0,0.355556 0,0.163556 0,0.291556 h -2.261334 l 1.244445,-5.6320002 q 0.03555,-0.1777778 -0.03556,-0.2844445 -0.064,-0.1137777 -0.248889,-0.1848888 L 55.916248,9.1840388 V 8.750261 l 3.264,-0.512 -0.213333,1.1804445 h 0.03556 q 0.384,-0.4266667 0.732445,-0.6755556 0.355555,-0.2488889 0.668444,-0.3697778 0.32,-0.128 0.597333,-0.1564444 0.277334,-0.035556 0.519112,-0.035556 0.369777,0 0.689777,0.099556 0.327111,0.099556 0.561778,0.3128889 0.234667,0.2062222 0.369778,0.5191111 0.135111,0.3128889 0.135111,0.7324444 0,0.1777779 -0.02844,0.3839999 -0.02845,0.199111 -0.064,0.376889 l -0.519112,2.190222 q -0.04978,0.206222 -0.09244,0.426667 -0.03556,0.213333 -0.07111,0.405333 -0.02844,0.184889 -0.04978,0.334222 -0.01422,0.149334 -0.01422,0.227556 0,0.08533 0.02844,0.184889 0.02844,0.09956 0.09956,0.192 0.07822,0.09244 0.206222,0.149333 0.128,0.05689 0.312889,0.05689 0.04978,0 0.128,-0.01422 0.07822,-0.01422 0.170667,-0.03556 0.09956,-0.02844 0.199111,-0.064 0.106666,-0.03556 0.206222,-0.07822 h 0.206222 v 0.583111 q -0.206222,0.128 -0.455111,0.220445 -0.248889,0.09244 -0.533333,0.156444 -0.277334,0.064 -0.583111,0.09956 -0.305778,0.03555 -0.625778,0.03555 z"
         style="font-style:italic;font-family:'Sitka Heading';-inkscape-font-specification:'Sitka Heading Bold Italic'"
         id="path2897" />
      <path
         d="m 66.796263,15.704928 q -0.547555,0 -0.967111,-0.206223 -0.412444,-0.206222 -0.704,-0.576 -0.284444,-0.369777 -0.433778,-0.874666 -0.142222,-0.504889 -0.142222,-1.102222 0,-0.590223 0.120889,-1.166223 0.120889,-0.583111 0.355556,-1.109333 0.234666,-0.533333 0.576,-0.9884444 0.341333,-0.4551111 0.775111,-0.7822222 0.440889,-0.3342223 0.96,-0.5262223 0.526222,-0.192 1.123555,-0.192 0.305778,0 0.583111,0.071111 0.284445,0.064 0.519111,0.1777777 0.241778,0.1066667 0.419556,0.2417778 0.177778,0.1351111 0.284444,0.2702222 l 0.064,-0.3697777 0.476445,-2.1973334 Q 70.84249,6.2044831 70.77137,6.0907053 70.70737,5.9769275 70.522481,5.9058164 L 69.804263,5.6000388 69.797152,5.1591499 73.17493,4.7253721 71.418485,12.796483 q -0.04978,0.213334 -0.09244,0.426667 -0.04267,0.206222 -0.07822,0.391111 -0.02845,0.184889 -0.04978,0.334222 -0.01422,0.149334 -0.01422,0.241778 0,0.08533 0.02844,0.184889 0.03556,0.09956 0.106667,0.192 0.07822,0.09244 0.199111,0.149333 0.128,0.05689 0.312889,0.05689 0.04978,0 0.128,-0.01422 0.08533,-0.01422 0.177778,-0.03556 0.09244,-0.02844 0.192,-0.064 0.106666,-0.03556 0.206222,-0.07822 h 0.213333 v 0.583111 q -0.213333,0.128 -0.462222,0.220445 -0.241778,0.09244 -0.519111,0.156444 -0.277333,0.064 -0.583111,0.09956 -0.298667,0.03555 -0.618667,0.03555 -0.312889,0 -0.576,-0.08533 -0.263111,-0.08533 -0.455111,-0.241778 -0.192,-0.156444 -0.305778,-0.376889 -0.113778,-0.220444 -0.128,-0.483555 h -0.03556 q -0.348445,0.398222 -0.647111,0.64 -0.298667,0.241777 -0.576,0.369777 -0.270223,0.128 -0.526223,0.163556 -0.256,0.04267 -0.519111,0.04267 z m 1.144889,-1.223111 q 0.177778,0 0.348445,-0.04267 0.177777,-0.04267 0.334222,-0.120889 0.156444,-0.07822 0.291555,-0.192 0.135111,-0.113778 0.248889,-0.248889 l 0.967111,-4.3804443 q -0.256,-0.1493333 -0.590222,-0.2275556 -0.327111,-0.078222 -0.675555,-0.078222 -0.398223,0 -0.718223,0.1777778 -0.312889,0.1706667 -0.547555,0.4622222 -0.234667,0.2844439 -0.405334,0.6613329 -0.170666,0.369778 -0.277333,0.768 -0.09955,0.391111 -0.149333,0.782222 -0.04267,0.384 -0.04267,0.704 0,0.298667 0.04978,0.611556 0.04978,0.305778 0.184889,0.554667 0.142222,0.248889 0.376889,0.412444 0.234666,0.156445 0.604444,0.156445 z"
         style="font-style:italic;font-family:'Sitka Heading';-inkscape-font-specification:'Sitka Heading Bold Italic'"
         id="path2899" />
      <path
         d="m 76.339373,15.71915 q -0.376889,0 -0.739556,-0.08533 -0.362666,-0.08533 -0.689777,-0.256 -0.32,-0.177778 -0.597334,-0.426667 -0.270222,-0.256 -0.469333,-0.583111 -0.199111,-0.334222 -0.312889,-0.746667 -0.106667,-0.412444 -0.106667,-0.896 0,-0.618667 0.149334,-1.194667 0.156444,-0.583111 0.433778,-1.088 0.284444,-0.5048884 0.689777,-0.9173329 0.405334,-0.4195555 0.903111,-0.7182222 0.504889,-0.2986666 1.095112,-0.4622222 0.590222,-0.1706667 1.244444,-0.1706667 0.376889,0 0.775111,0.078222 0.405333,0.078222 0.739556,0.2631111 0.334222,0.1848889 0.547555,0.4835555 0.213334,0.2986667 0.213334,0.7466667 0,0.4408887 -0.163556,0.7964447 -0.156444,0.355556 -0.433778,0.625778 -0.270222,0.263111 -0.632889,0.448 -0.355555,0.184889 -0.760889,0.305778 -0.405333,0.120888 -0.832,0.177777 -0.426666,0.04978 -0.817777,0.04978 -0.277334,0 -0.540445,-0.01422 -0.256,-0.02133 -0.490666,-0.05689 -0.01422,0.113778 -0.02845,0.220444 -0.0071,0.106667 -0.0071,0.220445 -0.0071,0.433778 0.09244,0.796444 0.09956,0.362667 0.305778,0.632889 0.206222,0.263111 0.533334,0.412445 0.327111,0.149333 0.782222,0.149333 0.355555,0 0.682666,-0.05689 0.334223,-0.05689 0.64,-0.156444 0.305778,-0.09956 0.576,-0.234667 0.277334,-0.135111 0.512,-0.284444 h 0.277334 l -0.09956,0.753777 q -0.391111,0.284445 -0.768,0.504889 -0.376889,0.220445 -0.789333,0.376889 -0.412445,0.149333 -0.881778,0.227556 -0.469333,0.07822 -1.031111,0.07822 z m -0.106667,-4.266667 q 0.419556,0 0.775111,-0.07822 0.362667,-0.08533 0.625778,-0.284444 0.263111,-0.199112 0.412445,-0.512 0.156444,-0.32 0.156444,-0.7893337 0,-0.3697778 -0.213333,-0.5831112 -0.206222,-0.2204444 -0.568889,-0.2204444 -0.142222,0 -0.284445,0.064 -0.135111,0.056889 -0.256,0.1422222 -0.241777,0.1635556 -0.440888,0.4195556 -0.199112,0.2488889 -0.355556,0.5475555 -0.149333,0.298667 -0.263111,0.632889 -0.106667,0.327111 -0.170667,0.647111 0.142222,0.01422 0.291556,0.01422 0.149333,0 0.291555,0 z"
         style="font-style:italic;font-family:'Sitka Heading';-inkscape-font-specification:'Sitka Heading Bold Italic'"
         id="path2901" />
      <path
         d="m 81.935806,10.634705 q 0.02844,-0.135111 0.064,-0.305777 0.03555,-0.177778 0.03555,-0.3484447 0,-0.1706667 -0.05689,-0.3128889 -0.05689,-0.1422223 -0.220445,-0.1991111 L 81.06825,9.1769277 V 8.7360388 L 84.296695,8.238261 84.033584,9.8311499 h 0.02844 q 0.277333,-0.3626666 0.554667,-0.6684444 0.284444,-0.3057778 0.576,-0.5191111 0.298666,-0.2204445 0.618666,-0.3413334 0.32,-0.1208889 0.675556,-0.1208889 0.192,0 0.341333,0.021333 0.156445,0.014222 0.284445,0.049778 0.135111,0.035556 0.256,0.085333 0.120889,0.049778 0.248889,0.1137778 L 87.283361,10.66315 H 86.38025 l -0.184889,-0.526222 q -0.02844,-0.07111 -0.09956,-0.128 -0.064,-0.064 -0.156445,-0.1137781 -0.09244,-0.049778 -0.199111,-0.071111 -0.106666,-0.028444 -0.220444,-0.028444 -0.192,0 -0.384,0.028444 -0.192,0.028444 -0.384,0.1066667 -0.184889,0.071112 -0.376889,0.1991114 -0.192,0.120888 -0.391111,0.32 l -0.789333,3.740444 q -0.02133,0.142222 -0.03556,0.327111 -0.0071,0.184889 -0.01422,0.376889 0,0.192 0,0.369778 0.0071,0.177778 0.0071,0.305778 h -2.268445 z"
         style="font-style:italic;font-family:'Sitka Heading';-inkscape-font-specification:'Sitka Heading Bold Italic'"
         id="path2903" />
      <path
         d="m 85.90381,18.98315 q -0.128,0 -0.291555,-0.01422 -0.163556,-0.01422 -0.341334,-0.04267 -0.184888,-0.02133 -0.369777,-0.064 -0.184889,-0.04267 -0.362667,-0.09244 l 0.405333,-1.678223 h 0.291556 q 0.213333,0.07822 0.469333,0.149334 0.248889,0.07822 0.504889,0.135111 0.248889,0.064 0.483556,0.09244 0.227555,0.03556 0.398222,0.03556 0.170667,0 0.327111,-0.04267 0.149333,-0.04267 0.284444,-0.177778 0.04978,-0.04978 0.120889,-0.248889 0.07111,-0.199111 0.142223,-0.483555 0.07822,-0.277333 0.156444,-0.611556 0.07822,-0.334222 0.142222,-0.654222 l 1.152,-5.8524443 h -1.216 l 0.120889,-0.8888889 h 1.301333 Q 89.758033,8.0675944 89.907366,7.662261 90.06381,7.2569277 90.25581,6.9155944 q 0.199111,-0.3484445 0.440889,-0.64 0.241778,-0.2986667 0.554667,-0.5475556 0.334222,-0.2773333 0.654222,-0.4835555 0.327111,-0.2133334 0.661333,-0.3484445 0.334223,-0.1422222 0.689778,-0.2133333 0.362667,-0.071111 0.768,-0.071111 0.135111,0 0.298667,0.021333 0.163555,0.014222 0.341333,0.042667 0.177778,0.021333 0.348445,0.056889 0.177777,0.035556 0.327111,0.078222 l -0.398222,1.6782222 h -0.298667 q -0.220445,-0.085333 -0.462222,-0.1493333 -0.241778,-0.071111 -0.483556,-0.128 -0.241778,-0.056889 -0.462222,-0.085333 -0.220445,-0.035556 -0.391111,-0.035556 -0.177778,0 -0.334222,0.042667 -0.149334,0.042667 -0.277334,0.1777778 -0.04978,0.056889 -0.128,0.2773334 -0.07111,0.2133333 -0.156444,0.5262222 -0.08533,0.3128889 -0.170667,0.6897778 -0.07822,0.3697777 -0.149333,0.7395555 h 1.870222 L 93.356255,9.4329277 H 91.443366 L 90.326921,15.14315 q -0.142222,0.768 -0.504888,1.408 -0.355556,0.647111 -0.931556,1.166222 -0.355556,0.32 -0.704,0.554667 -0.341333,0.241778 -0.704,0.398222 -0.362667,0.163556 -0.753778,0.234667 -0.391111,0.07822 -0.824889,0.07822 z"
         style="font-style:italic;font-family:'Sitka Heading';-inkscape-font-specification:'Sitka Heading Bold Italic'"
         id="path2905" />
      <path
         d="m 95.567804,15.704928 q -0.376889,0 -0.696889,-0.09956 -0.32,-0.09955 -0.554667,-0.305778 -0.234666,-0.206222 -0.369777,-0.519111 -0.128,-0.312889 -0.128,-0.739555 0,-0.170667 0.02133,-0.376889 0.02844,-0.206222 0.07111,-0.376889 l 0.768,-3.3493334 Q 94.714471,9.7600388 94.64336,9.6533721 94.572248,9.5395944 94.394471,9.4684833 l -0.668445,-0.2844445 -0.0071,-0.4337778 3.342222,-0.512 -0.981333,4.366222 q -0.02133,0.106667 -0.04978,0.227556 -0.02133,0.113778 -0.04267,0.234666 -0.01422,0.113778 -0.02844,0.220445 -0.0071,0.106667 -0.01422,0.192 -0.0071,0.227555 0.03556,0.405333 0.04267,0.177778 0.142223,0.305778 0.106666,0.128 0.284444,0.199111 0.177778,0.064 0.433778,0.064 0.163555,0 0.334222,-0.02844 0.177778,-0.02844 0.355556,-0.09244 0.184889,-0.064 0.362666,-0.177778 0.177778,-0.113777 0.327111,-0.298666 L 99.12336,9.7458166 q 0.02844,-0.1706667 0.03555,-0.3555556 0.01422,-0.192 0.02133,-0.3768889 0.0071,-0.1848888 0.0071,-0.3484444 0,-0.1706667 0,-0.2986667 h 2.26133 l -0.98133,4.430222 q -0.0427,0.206222 -0.0853,0.419556 -0.0427,0.206222 -0.0782,0.398222 -0.0284,0.184889 -0.0498,0.334222 -0.0142,0.149334 -0.0142,0.241778 0,0.08533 0.0284,0.184889 0.0284,0.09956 0.0996,0.192 0.0782,0.09244 0.20623,0.149333 0.128,0.05689 0.31289,0.05689 0.0498,0 0.128,-0.01422 0.0853,-0.01422 0.17777,-0.03556 0.0924,-0.02844 0.192,-0.064 0.10667,-0.03556 0.20623,-0.07822 h 0.20622 v 0.583111 q -0.20622,0.128 -0.45511,0.220445 -0.24178,0.09244 -0.51911,0.156444 -0.27734,0.064 -0.58312,0.09956 -0.298663,0.03555 -0.618663,0.03555 -0.312889,0 -0.576,-0.09244 -0.263111,-0.08533 -0.455111,-0.241778 -0.192,-0.163556 -0.305778,-0.384 -0.113777,-0.227556 -0.128,-0.490667 h -0.03556 q -0.398222,0.433778 -0.753778,0.682667 -0.355555,0.248889 -0.682667,0.369778 -0.32,0.120889 -0.597333,0.149333 -0.277333,0.03556 -0.519111,0.03556 z"
         style="font-style:italic;font-family:'Sitka Heading';-inkscape-font-specification:'Sitka Heading Bold Italic'"
         id="path2907" />
      <path
         d="m 104.29315,15.676483 q -0.31289,0 -0.576,-0.08533 -0.26311,-0.08533 -0.45511,-0.234667 -0.192,-0.156444 -0.30578,-0.369778 -0.10666,-0.213333 -0.10666,-0.476444 0,-0.277333 0.0356,-0.526222 0.0356,-0.248889 0.0924,-0.497778 l 1.57866,-7.1111111 q 0.0356,-0.1706666 -0.0356,-0.2844444 -0.0711,-0.1137778 -0.24889,-0.1848889 L 103.56071,5.6000388 V 5.1591499 l 3.37066,-0.4337778 -1.792,8.0711109 q -0.0427,0.206222 -0.0853,0.426667 -0.0356,0.213333 -0.064,0.405333 -0.0284,0.184889 -0.0498,0.334222 -0.0142,0.149334 -0.0142,0.227556 0,0.08533 0.0284,0.184889 0.0284,0.09956 0.0996,0.192 0.0782,0.09244 0.20622,0.149333 0.128,0.05689 0.31289,0.05689 0.0498,0 0.14933,-0.01422 0.0996,-0.02133 0.21334,-0.04978 0.11378,-0.02844 0.23466,-0.064 0.12089,-0.04267 0.22045,-0.09244 h 0.20622 v 0.583111 q -0.20622,0.128 -0.47644,0.227555 -0.26311,0.09244 -0.56178,0.163556 -0.29867,0.07111 -0.62578,0.106667 -0.32,0.04267 -0.64,0.04267 z"
         style="font-style:italic;font-family:'Sitka Heading';-inkscape-font-specification:'Sitka Heading Bold Italic'"
         id="path2909" />
    </g>
    <g
       aria-label="of"
       id="text299"
       style="font-style:italic;font-size:12px;font-family:'Sitka Heading';-inkscape-font-specification:'Sitka Heading Italic';fill:#aa8800;stroke:#e3e3e3;stroke-width:0.3;stroke-linecap:square;stroke-linejoin:bevel;paint-order:fill markers stroke">
      <path
         d="m 54.437683,61.46501 q -0.506666,0 -0.912,-0.154666 -0.4,-0.16 -0.677333,-0.448 -0.277333,-0.293334 -0.426667,-0.704 -0.144,-0.410667 -0.144,-0.922667 0,-0.464 0.101334,-0.896 0.101333,-0.437333 0.288,-0.821333 0.186666,-0.384 0.448,-0.698667 0.266666,-0.32 0.592,-0.549333 0.325333,-0.229334 0.704,-0.357334 0.384,-0.128 0.805333,-0.128 0.570667,0 0.976,0.181334 0.410667,0.176 0.666667,0.485333 0.261333,0.309333 0.384,0.72 0.122666,0.410667 0.122666,0.869333 0,0.453334 -0.106666,0.885334 -0.101334,0.426666 -0.288,0.810666 -0.181334,0.384 -0.448,0.704 -0.261334,0.314667 -0.586667,0.544 -0.325333,0.224 -0.704,0.352 -0.378667,0.128 -0.794667,0.128 z m 0.064,-0.432 q 0.298667,0 0.549334,-0.138666 0.256,-0.138667 0.458666,-0.368 0.202667,-0.234667 0.357334,-0.544 0.154666,-0.309334 0.256,-0.656 0.101333,-0.346667 0.154666,-0.704 0.05333,-0.362667 0.05333,-0.704 0,-0.346667 -0.05867,-0.656 -0.05867,-0.309334 -0.197333,-0.538667 -0.133334,-0.234667 -0.368,-0.368 -0.229334,-0.133333 -0.570667,-0.133333 -0.314667,0 -0.576,0.149333 -0.256,0.144 -0.458667,0.389333 -0.202666,0.245334 -0.352,0.565334 -0.149333,0.32 -0.250666,0.666666 -0.096,0.346667 -0.144,0.698667 -0.048,0.346667 -0.048,0.650667 0,0.325333 0.05333,0.634666 0.05867,0.304 0.192,0.538667 0.138667,0.234667 0.368,0.378667 0.234667,0.138666 0.581333,0.138666 z"
         id="path2912" />
      <path
         d="m 56.587006,63.886344 q -0.09067,0 -0.192,-0.016 -0.106667,-0.01067 -0.213333,-0.03733 -0.106667,-0.02133 -0.208,-0.05867 -0.106667,-0.032 -0.197334,-0.08 l 0.245334,-0.885334 h 0.138666 q 0.106667,0.06933 0.218667,0.133334 0.106667,0.06933 0.229333,0.117333 0.122667,0.05333 0.272,0.08533 0.144,0.032 0.325334,0.032 0.24,0 0.4,-0.06933 0.154666,-0.06933 0.261333,-0.218667 0.06933,-0.101333 0.144,-0.293333 0.08,-0.186667 0.16,-0.448 0.08533,-0.261333 0.165333,-0.592 0.08,-0.330667 0.16,-0.725333 l 0.842667,-4.288 h -0.928 l 0.06933,-0.485334 h 0.970667 q 0.186667,-0.773333 0.464,-1.328 0.282667,-0.56 0.645333,-0.917333 0.362667,-0.362667 0.784,-0.533333 0.426667,-0.170667 0.896,-0.170667 0.09067,0 0.197334,0.016 0.106666,0.01067 0.213333,0.03733 0.112,0.02133 0.218667,0.05867 0.112,0.03733 0.197333,0.08 l -0.24,0.88 h -0.138667 q -0.106666,-0.06933 -0.218666,-0.133333 -0.112,-0.06933 -0.24,-0.122667 -0.128,-0.05333 -0.277334,-0.08533 -0.149333,-0.032 -0.330666,-0.032 -0.154667,0 -0.272,0.02667 -0.112,0.02133 -0.197334,0.064 -0.08533,0.03733 -0.144,0.101334 -0.05333,0.05867 -0.096,0.138666 -0.064,0.128 -0.128,0.32 -0.05867,0.186667 -0.122666,0.432 -0.064,0.245334 -0.133334,0.538667 -0.06933,0.293333 -0.149333,0.629333 h 1.429333 l -0.08533,0.485334 h -1.434667 l -0.848,4.330666 q -0.154666,0.762667 -0.442666,1.328 -0.282667,0.570667 -0.666667,0.944 -0.378667,0.373334 -0.826667,0.554667 -0.448,0.186667 -0.917333,0.186667 z"
         id="path2914" />
    </g>
    <g
       aria-label="Knees"
       id="text303"
       style="font-weight:bold;font-size:31.9999px;font-family:'Sitka Heading';-inkscape-font-specification:'Sitka Heading Bold';fill:#aa8800;stroke:#e3e3e3;stroke-width:0.3;stroke-linecap:square;stroke-linejoin:bevel;paint-order:fill markers stroke">
      <path
         d="m 65.346814,72.950003 1.962661,-0.639998 q 0.270221,-0.09956 0.440887,-0.284443 0.170666,-0.199111 0.170666,-0.511999 V 56.480721 q 0,-0.312888 -0.184888,-0.497776 -0.170666,-0.199111 -0.426665,-0.284444 l -1.962661,-0.639998 v -1.009775 h 9.457749 v 1.009775 l -1.948439,0.639998 q -0.241777,0.07111 -0.440887,0.284444 -0.199111,0.19911 -0.199111,0.497776 v 7.736865 l 7.665754,-8.348419 -1.678217,-0.810664 v -1.009775 h 6.997312 v 1.009775 l -2.09066,0.78222 q -0.341333,0.142222 -0.668443,0.355554 -0.312888,0.199111 -0.639998,0.554665 l -5.347539,5.475539 6.798201,9.130638 q 0.128,0.170666 0.270222,0.341333 0.156444,0.170666 0.312888,0.312887 0.156444,0.142222 0.312888,0.256 0.170666,0.113777 0.355554,0.170666 l 1.663995,0.540443 v 0.98133 h -8.959972 v -0.98133 l 1.735106,-0.611554 -5.489761,-7.438199 -1.23733,1.038219 v 5.546649 q 0,0.32711 0.199111,0.526221 0.19911,0.184888 0.440887,0.270221 l 1.919994,0.639998 v 1.009775 h -9.429304 z"
         id="path2917" />
      <path
         d="m 86.537845,72.978448 1.521773,-0.540443 q 0.255999,-0.09956 0.426665,-0.284444 0.184888,-0.184888 0.184888,-0.483554 v -9.016861 q 0,-0.355554 -0.19911,-0.568887 -0.184889,-0.227555 -0.58311,-0.369777 l -1.351106,-0.52622 v -0.881775 l 6.058647,-1.009775 v 2.360882 h 0.07111 q 0.597332,-0.810664 1.194663,-1.294218 0.597332,-0.497777 1.180441,-0.753776 0.597332,-0.255999 1.166219,-0.341332 0.583109,-0.08533 1.151996,-0.08533 0.967108,0 1.806217,0.284443 0.853332,0.284444 1.479112,0.895998 0.62577,0.597331 0.98133,1.550217 0.35555,0.952886 0.35555,2.275548 v 7.423977 q 0,0.341333 0.17067,0.526221 0.18488,0.184888 0.44088,0.298666 l 1.33689,0.540443 v 0.98133 h -7.9502 v -0.98133 l 1.322662,-0.540443 q 0.241777,-0.09956 0.412444,-0.284444 0.184888,-0.19911 0.184888,-0.540443 v -5.959092 q 0,-0.967108 -0.08533,-1.692439 -0.08533,-0.739554 -0.355555,-1.223108 -0.255999,-0.497776 -0.739553,-0.753775 -0.483554,-0.255999 -1.279996,-0.255999 -0.341332,0 -0.711109,0.04267 -0.369776,0.02844 -0.725331,0.156444 -0.355554,0.113778 -0.682664,0.355555 -0.327111,0.227554 -0.58311,0.625775 v 8.760862 q 0,0.312888 0.170666,0.483554 0.184889,0.156444 0.440888,0.284444 l 1.166219,0.540443 v 0.98133 h -7.978642 z"
         id="path2919" />
      <path
         d="m 112.63553,74.286888 q -1.6071,0 -2.95821,-0.483554 -1.35111,-0.483554 -2.33244,-1.422218 -0.96711,-0.952886 -1.50755,-2.332437 -0.54044,-1.393774 -0.54044,-3.214212 0,-1.550218 0.512,-2.943991 0.52622,-1.393774 1.4791,-2.431993 0.96711,-1.052441 2.34666,-1.663995 1.37956,-0.625775 3.11466,-0.625775 1.50755,0 2.67377,0.483554 1.18044,0.483554 1.97688,1.265773 0.81067,0.78222 1.22311,1.806217 0.42667,1.023997 0.42667,2.104882 0,0.128 -0.0142,0.383999 0,0.241777 -0.0284,0.497777 -0.0142,0.255999 -0.0284,0.497776 -0.0142,0.227555 -0.0284,0.32711 h -9.44353 q 0.0142,2.588436 1.18044,3.939543 1.16622,1.336885 3.58399,1.336885 0.768,0 1.408,-0.128 0.64,-0.142221 1.16622,-0.32711 0.54044,-0.184888 0.95288,-0.412443 0.42667,-0.227555 0.75378,-0.412443 h 0.46933 v 1.336885 q -0.52622,0.426665 -1.22311,0.85333 -0.69688,0.412443 -1.50755,0.767998 -0.81066,0.355554 -1.7351,0.568887 -0.92444,0.227555 -1.92,0.227555 z m 2.24711,-9.27286 q 0,-0.924442 -0.11378,-1.692439 -0.11378,-0.767998 -0.39822,-1.322663 -0.27022,-0.554665 -0.73955,-0.867553 -0.46934,-0.312888 -1.16622,-0.312888 -0.65422,0 -1.18044,0.284444 -0.512,0.284443 -0.88178,0.824886 -0.36978,0.540443 -0.58311,1.322663 -0.21333,0.782219 -0.256,1.76355 z"
         id="path2921" />
      <path
         d="m 128.0808,74.286888 q -1.60711,0 -2.95822,-0.483554 -1.3511,-0.483554 -2.33243,-1.422218 -0.96711,-0.952886 -1.50755,-2.332437 -0.54045,-1.393774 -0.54045,-3.214212 0,-1.550218 0.512,-2.943991 0.52622,-1.393774 1.47911,-2.431993 0.96711,-1.052441 2.34666,-1.663995 1.37955,-0.625775 3.11465,-0.625775 1.50755,0 2.67377,0.483554 1.18044,0.483554 1.97689,1.265773 0.81066,0.78222 1.2231,1.806217 0.42667,1.023997 0.42667,2.104882 0,0.128 -0.0142,0.383999 0,0.241777 -0.0285,0.497777 -0.0142,0.255999 -0.0284,0.497776 -0.0142,0.227555 -0.0284,0.32711 h -9.44352 q 0.0142,2.588436 1.18044,3.939543 1.16622,1.336885 3.58399,1.336885 0.76799,0 1.40799,-0.128 0.64,-0.142221 1.16622,-0.32711 0.54044,-0.184888 0.95289,-0.412443 0.42666,-0.227555 0.75377,-0.412443 h 0.46933 v 1.336885 q -0.52622,0.426665 -1.2231,0.85333 -0.69689,0.412443 -1.50755,0.767998 -0.81067,0.355554 -1.73511,0.568887 -0.92444,0.227555 -1.91999,0.227555 z m 2.2471,-9.27286 q 0,-0.924442 -0.11378,-1.692439 -0.11377,-0.767998 -0.39822,-1.322663 -0.27022,-0.554665 -0.73955,-0.867553 -0.46933,-0.312888 -1.16622,-0.312888 -0.65422,0 -1.18044,0.284444 -0.512,0.284443 -0.88178,0.824886 -0.36977,0.540443 -0.58311,1.322663 -0.21333,0.782219 -0.25599,1.76355 z"
         id="path2923" />
      <path
         d="m 141.96162,74.357999 q -0.88178,0 -1.664,-0.09956 -0.76799,-0.08533 -1.43644,-0.227555 -0.66844,-0.142222 -1.25155,-0.312888 -0.56888,-0.170666 -1.08088,-0.32711 v -4.124432 h 1.52177 l 0.512,1.479107 q 0.0569,0.156444 0.15644,0.298665 0.0996,0.128 0.22756,0.241777 0.128,0.113778 0.256,0.213333 0.128,0.09955 0.256,0.156444 0.256,0.156444 0.62577,0.32711 0.384,0.170666 0.81067,0.312888 0.44088,0.128 0.89599,0.213333 0.46934,0.08533 0.91022,0.08533 0.48356,0 0.88178,-0.113778 0.41244,-0.113777 0.71111,-0.355554 0.29866,-0.255999 0.46933,-0.625776 0.17066,-0.383999 0.17066,-0.938664 0,-0.455109 -0.21333,-0.767997 -0.19911,-0.32711 -0.54044,-0.554665 -0.34133,-0.227555 -0.79644,-0.383999 -0.45511,-0.170666 -0.95289,-0.312888 -0.71111,-0.199111 -1.32266,-0.355554 -0.59733,-0.170667 -1.18044,-0.341333 -0.768,-0.241777 -1.36533,-0.611553 -0.59733,-0.383999 -1.00978,-0.895998 -0.39822,-0.511998 -0.61155,-1.151996 -0.21333,-0.65422 -0.21333,-1.407996 0,-1.023997 0.512,-1.877327 0.51199,-0.853331 1.37955,-1.464885 0.88177,-0.611553 2.04799,-0.938663 1.18044,-0.341333 2.5031,-0.341333 0.81067,0 1.45067,0.05689 0.63999,0.04267 1.18044,0.128 0.55466,0.07111 1.03822,0.184888 0.49777,0.113777 1.00977,0.241777 l 0.17067,4.138654 h -1.56444 l -0.56889,-1.493329 q -0.0996,-0.270221 -0.34133,-0.483554 -0.22756,-0.213333 -0.48356,-0.355554 -0.24177,-0.128 -0.54044,-0.241777 -0.29866,-0.128 -0.65422,-0.227555 -0.34133,-0.09956 -0.71111,-0.156444 -0.36977,-0.05689 -0.72533,-0.05689 -0.34133,0 -0.68266,0.113778 -0.34134,0.09956 -0.61156,0.312887 -0.27022,0.213333 -0.44088,0.554665 -0.17067,0.341333 -0.17067,0.78222 0,0.483554 0.17067,0.839109 0.17066,0.341332 0.46933,0.583109 0.31289,0.241777 0.71111,0.412443 0.39822,0.156444 0.85333,0.298666 0.64,0.19911 1.25155,0.383999 0.62577,0.170666 1.08088,0.312888 0.82489,0.255999 1.49333,0.611553 0.68267,0.341333 1.152,0.810664 0.48355,0.469332 0.73955,1.095108 0.256,0.611554 0.256,1.422218 0,1.294218 -0.56889,2.232882 -0.55466,0.924442 -1.50755,1.535995 -0.93866,0.597332 -2.16177,0.881775 -1.20888,0.284444 -2.5031,0.284444 z"
         id="path2925" />
    </g>
  </g>
</svg>
