<?xml version="1.0" encoding="UTF-8" standalone="no"?>
<!-- Created with Inkscape (http://www.inkscape.org/) -->

<svg
   width="120"
   height="120"
   viewBox="0 0 120 120"
   version="1.1"
   id="svg5"
   xml:space="preserve"
   xmlns:xlink="http://www.w3.org/1999/xlink"
   xmlns="http://www.w3.org/2000/svg"
   xmlns:svg="http://www.w3.org/2000/svg"><defs
     id="defs2" /><g
     id="layer1"><path
       style="fill:#cdc300;fill-opacity:1;stroke:#000000;stroke-width:3;stroke-linecap:square;stroke-linejoin:bevel;stroke-dasharray:none;stroke-opacity:1;paint-order:fill markers stroke"
       d="m 50.914212,110.74042 c 0,0 -3.26352,-10.6692 -3.01248,-17.823835 0.25104,-7.15464 3.26352,-19.45559 3.26352,-20.08319 0,-0.6276 -2.76144,-4.01664 -5.39736,-7.5312 -2.63592,-3.51456 -9.91608,-7.02911 -15.69,-11.42231 -5.77391,-4.3932 -11.29679,-12.04992 -11.29679,-12.04992 0,0 39.904389,-33.8990984 43.176054,-32.2632659 3.271666,1.6358329 12.502435,9.5813049 16.358326,15.5404089 3.855891,5.959104 8.880234,12.969815 10.749757,16.358325 1.869523,3.38851 6.309639,10.282376 7.01071,14.956183 0.701071,4.673808 -1.635832,13.554041 -1.635832,16.24148 0,2.68744 -0.350536,16.358326 -0.934762,21.616359 -0.584226,5.258033 -2.103213,13.904575 -2.687439,15.306715 -0.584226,1.40214 -39.903704,1.15425 -39.903704,1.15425 z"
       id="path356" /><path
       style="fill:none;stroke:#000000;stroke-width:3;stroke-linecap:square;stroke-linejoin:bevel;stroke-dasharray:none;stroke-opacity:1;paint-order:fill markers stroke"
       d="m 54.399551,68.186411 c 0,0 4.64424,3.01248 11.79888,3.01248 7.15464,0 6.9036,-3.138 10.6692,-4.14216"
       id="path1184" /><path
       style="fill:none;stroke:#000000;stroke-width:3;stroke-linecap:square;stroke-linejoin:bevel;stroke-dasharray:none;stroke-opacity:1;paint-order:fill markers stroke"
       d="m 85.402981,47.099061 c 0,0 4.14216,2.76144 4.3932,9.91608 0.25104,7.15463 -3.01248,12.55199 -3.01248,12.55199"
       id="path1186" /><path
       style="fill:none;stroke:#000000;stroke-width:3;stroke-linecap:square;stroke-linejoin:bevel;stroke-dasharray:none;stroke-opacity:1;paint-order:fill markers stroke"
       d="m 51.010521,53.626101 c 0,0 7.40567,-9.91608 15.56447,-9.79056 8.1588,0.12552 11.29679,5.89944 11.29679,5.89944"
       id="path1188" /><path
       style="display:none;opacity:0.99;fill:none;fill-opacity:1;stroke:#f30c0c;stroke-width:0.2;stroke-linecap:square;stroke-linejoin:bevel;stroke-dasharray:none;stroke-opacity:1;paint-order:fill markers stroke"
       d="m 66.148979,69.610517 c 1.562804,-0.08763 3.373904,-0.131451 4.863681,-0.934762 1.489776,-0.80331 2.457864,-1.94908 4.06037,-2.731256 1.226874,-0.598832 2.745861,-0.817916 2.745861,-0.817916"
       id="path1212" /><text
       xml:space="preserve"
       style="font-weight:bold;font-size:0.666667px;font-family:'Sitka Heading';-inkscape-font-specification:'Sitka Heading Bold';letter-spacing:0.15px;opacity:0.99;fill:#000000;fill-opacity:1;stroke:none;stroke-width:0.2;stroke-linecap:square;stroke-linejoin:bevel;stroke-dasharray:none;stroke-opacity:1;paint-order:fill markers stroke"
       id="text1994"
       transform="translate(0.13145083,-0.14605648)"><textPath
         xlink:href="#path1212"
         id="textPath2930"><tspan
           id="tspan1992">Oh hey there, you found me!</tspan></textPath></text></g></svg>
